# xmcd
# 
# Track frame offsets:
#     150
#     15477
#     27960
#     44298
#     59034
#     74110
#     90523
#     103975
#     114907
#     133318
#     156529
# 
# Disc length: 2242
# 
# Revision: 2
# Processed by: cddbd v1.5.2PL0 Copyright (c) Steve Scherf et al.
# Submitted via: fre:ac v1.0.31
# 
DISCID=a008c00b
DTITLE=Della Mae - Della Mae
DYEAR=2015
DGENRE=Country
TTITLE0=Boston Town
TTITLE1=Rude Awakening
TTITLE2=Can't Go Back
TTITLE3=For the Sake of My Heart
TTITLE4=Good Blood
TTITLE5=To Ohio
TTITLE6=Shambles
TTITLE7=Take One Day
TTITLE8=Long Shadow
TTITLE9=No Expectations
TTITLE10=High Away Gone
EXTD=
EXTT0=
EXTT1=
EXTT2=
EXTT3=
EXTT4=
EXTT5=
EXTT6=
EXTT7=
EXTT8=
EXTT9=
EXTT10=
PLAYORDER=
